<svg width="164" height="121" viewBox="0 0 164 121" fill="none" xmlns="http://www.w3.org/2000/svg">
<rect x="27.3198" y="-1.02416" width="142.762" height="76.4383" rx="12.7693" transform="rotate(21.1948 27.3198 -1.02416)" fill="#4192F5" stroke="#8FC1FF" stroke-width="4.82621"/>
<path d="M86.4831 29.7803L81.8735 27.9984L74.5924 39.1804L72.7678 38.475L80.0489 27.293L75.4393 25.511L76.3598 24.1007L87.4228 28.3775L86.4831 29.7803ZM91.349 29.8953L93.3465 30.6675L90.5227 45.3388L88.6405 44.6112L89.603 40.2367L83.8219 38.0018L79.8247 41.2031L77.808 40.4235L91.349 29.8953ZM85.2417 36.7846L89.9666 38.6111L91.436 31.7834L91.3976 31.7685L85.2417 36.7846ZM97.8943 39.9759L102.024 41.5722C103.022 41.9583 103.877 41.9943 104.587 41.6801C105.302 41.3531 105.818 40.7799 106.135 39.9604C106.298 39.5379 106.37 39.161 106.351 38.8298C106.35 38.4908 106.279 38.1984 106.138 37.9528C106.003 37.6943 105.815 37.4747 105.576 37.2939C105.337 37.1131 105.064 36.9633 104.756 36.8445L100.896 35.3521L97.8943 39.9759ZM99.9534 33.2216L105.35 35.308C106.669 35.8179 107.553 36.5201 108.002 37.4149C108.464 38.3145 108.45 39.3982 107.96 40.6658C107.796 41.0883 107.532 41.5235 107.168 41.9714C106.808 42.4064 106.34 42.7624 105.762 43.0393C105.196 43.3212 104.517 43.4782 103.725 43.5104C102.95 43.5347 102.057 43.3513 101.046 42.9603L96.9737 41.3862L93.6149 46.5342L91.7902 45.8288L99.9534 33.2216ZM77.4686 53.0986L72.859 51.3166L65.5779 62.4986L63.7533 61.7932L71.0344 50.6112L66.4248 48.8292L67.3453 47.4189L78.4083 51.6957L77.4686 53.0986ZM82.3346 53.2135L84.3321 53.9857L81.5083 68.657L79.6261 67.9294L80.5886 63.5549L74.8074 61.32L70.8102 64.5213L68.7935 63.7417L82.3346 53.2135ZM76.2273 60.1028L80.9521 61.9293L82.4215 55.1016L82.3831 55.0867L76.2273 60.1028ZM88.8798 63.2941L93.0092 64.8905C94.008 65.2766 94.8624 65.3125 95.5726 64.9983C96.2877 64.6714 96.8037 64.0981 97.1205 63.2787C97.2838 62.8561 97.3559 62.4792 97.3368 62.148C97.3354 61.809 97.2644 61.5166 97.1239 61.271C96.9884 61.0125 96.801 60.7929 96.5618 60.6121C96.3226 60.4314 96.0493 60.2816 95.742 60.1628L91.8815 58.6704L88.8798 63.2941ZM90.939 56.5398L96.336 58.6262C97.6549 59.1361 98.5388 59.8384 98.9876 60.7331C99.4493 61.6327 99.4352 62.7164 98.9451 63.984C98.7818 64.4066 98.5179 64.8418 98.1534 65.2896C97.7939 65.7246 97.3251 66.0806 96.7471 66.3575C96.1819 66.6394 95.503 66.7965 94.7105 66.8286C93.9358 66.8529 93.0426 66.6695 92.0311 66.2785L87.9593 64.7044L84.6004 69.8524L82.7758 69.147L90.939 56.5398ZM68.4542 76.4168L63.8446 74.6348L56.5635 85.8168L54.7389 85.1115L62.02 73.9294L57.4104 72.1475L58.3309 70.7372L69.3939 75.0139L68.4542 76.4168ZM73.3201 76.5317L75.3176 77.3039L72.4939 91.9753L70.6116 91.2476L71.5742 86.8732L65.793 84.6383L61.7958 87.8396L59.7791 87.0599L73.3201 76.5317ZM67.2129 83.421L71.9377 85.2475L73.4071 78.4198L73.3687 78.405L67.2129 83.421ZM79.8654 86.6123L83.9948 88.2087C84.9935 88.5948 85.848 88.6308 86.5582 88.3166C87.2733 87.9896 87.7892 87.4164 88.106 86.5969C88.2694 86.1743 88.3415 85.7975 88.3224 85.4663C88.321 85.1272 88.25 84.8349 88.1095 84.5892C87.9739 84.3308 87.7865 84.1111 87.5473 83.9304C87.3081 83.7496 87.0349 83.5998 86.7276 83.481L82.8671 81.9886L79.8654 86.6123ZM81.9245 79.8581L87.3216 81.9445C88.6404 82.4543 89.5243 83.1566 89.9732 84.0513C90.4349 84.951 90.4207 86.0346 89.9307 87.3023C89.7673 87.7248 89.5034 88.16 89.139 88.6078C88.7795 89.0428 88.3107 89.3988 87.7326 89.6758C87.1674 89.9577 86.4886 90.1147 85.6961 90.1469C84.9213 90.1711 84.0282 89.9878 83.0167 89.5967L78.9449 88.0226L75.586 93.1706L73.7613 92.4652L81.9245 79.8581Z" fill="white"/>
<path d="M43.6862 13.7974L39.0766 12.0154L31.7955 23.1975L29.9709 22.4921L37.252 11.3101L32.6424 9.52809L33.5629 8.11778L44.6259 12.3946L43.6862 13.7974ZM48.5521 13.9124L50.5496 14.6846L47.7259 29.3559L45.8436 28.6282L46.8062 24.2538L41.025 22.0189L37.0278 25.2202L35.0111 24.4406L48.5521 13.9124ZM42.4449 20.8016L47.1697 22.6282L48.6391 15.8004L48.6007 15.7856L42.4449 20.8016ZM55.0974 23.993L59.2268 25.5893C60.2255 25.9754 61.08 26.0114 61.7902 25.6972C62.5053 25.3702 63.0213 24.797 63.338 23.9775C63.5014 23.555 63.5735 23.1781 63.5544 22.8469C63.553 22.5079 63.482 22.2155 63.3415 21.9698C63.2059 21.7114 63.0185 21.4918 62.7793 21.311C62.5402 21.1302 62.2669 20.9804 61.9596 20.8616L58.0991 19.3692L55.0974 23.993ZM57.1565 17.2387L62.5536 19.3251C63.8724 19.8349 64.7563 20.5372 65.2052 21.4319C65.6669 22.3316 65.6527 23.4153 65.1627 24.6829C64.9993 25.1054 64.7354 25.5406 64.371 25.9884C64.0115 26.4235 63.5427 26.7795 62.9647 27.0564C62.3994 27.3383 61.7206 27.4953 60.9281 27.5275C60.1533 27.5518 59.2602 27.3684 58.2487 26.9774L54.1769 25.4033L50.818 30.5512L48.9934 29.8459L57.1565 17.2387ZM34.6717 37.1157L30.0622 35.3337L22.7811 46.5157L20.9564 45.8103L28.2375 34.6283L23.628 32.8463L24.5485 31.436L35.6115 35.7128L34.6717 37.1157ZM39.5377 37.2306L41.5352 38.0028L38.7114 52.6741L36.8292 51.9465L37.7917 47.572L32.0105 45.3371L28.0134 48.5384L25.9967 47.7588L39.5377 37.2306ZM33.4304 44.1199L38.1552 45.9464L39.6247 39.1187L39.5862 39.1038L33.4304 44.1199ZM46.0829 47.3112L50.2124 48.9076C51.2111 49.2937 52.0656 49.3296 52.7757 49.0154C53.4909 48.6885 54.0068 48.1152 54.3236 47.2957C54.487 46.8732 54.5591 46.4963 54.5399 46.1651C54.5385 45.8261 54.4676 45.5337 54.327 45.2881C54.1915 45.0296 54.0041 44.81 53.7649 44.6292C53.5257 44.4484 53.2525 44.2987 52.9452 44.1799L49.0846 42.6874L46.0829 47.3112ZM48.1421 40.5569L53.5392 42.6433C54.858 43.1532 55.7419 43.8555 56.1908 44.7502C56.6525 45.6498 56.6383 46.7335 56.1482 48.0011C55.9849 48.4237 55.721 48.8588 55.3565 49.3067C54.997 49.7417 54.5282 50.0977 53.9502 50.3746C53.385 50.6565 52.7061 50.8136 51.9136 50.8457C51.1389 50.87 50.2458 50.6866 49.2342 50.2956L45.1624 48.7215L41.8035 53.8695L39.9789 53.1641L48.1421 40.5569ZM25.6573 60.4339L21.0477 58.6519L13.7666 69.8339L11.942 69.1286L19.2231 57.9465L14.6135 56.1645L15.534 54.7542L26.597 59.031L25.6573 60.4339ZM30.5233 60.5488L32.5207 61.321L29.697 75.9923L27.8147 75.2647L28.7773 70.8903L22.9961 68.6554L18.9989 71.8567L16.9822 71.077L30.5233 60.5488ZM24.416 67.4381L29.1408 69.2646L30.6102 62.4369L30.5718 62.4221L24.416 67.4381ZM37.0685 70.6294L41.1979 72.2258C42.1967 72.6119 43.0511 72.6478 43.7613 72.3337C44.4764 72.0067 44.9924 71.4335 45.3092 70.614C45.4725 70.1914 45.5446 69.8146 45.5255 69.4834C45.5241 69.1443 45.4531 68.852 45.3126 68.6063C45.177 68.3478 44.9897 68.1282 44.7505 67.9474C44.5113 67.7667 44.238 67.6169 43.9307 67.4981L40.0702 66.0057L37.0685 70.6294ZM39.1277 63.8752L44.5247 65.9616C45.8436 66.4714 46.7274 67.1737 47.1763 68.0684C47.638 68.9681 47.6238 70.0517 47.1338 71.3193C46.9704 71.7419 46.7065 72.1771 46.3421 72.6249C45.9826 73.0599 45.5138 73.4159 44.9358 73.6929C44.3705 73.9748 43.6917 74.1318 42.8992 74.1639C42.1245 74.1882 41.2313 74.0049 40.2198 73.6138L36.148 72.0397L32.7891 77.1877L30.9645 76.4823L39.1277 63.8752Z" fill="white"/>
<path d="M127.339 46.003L122.729 44.221L115.448 55.403L113.623 54.6977L120.904 43.5156L116.295 41.7337L117.215 40.3234L128.278 44.6001L127.339 46.003ZM132.204 46.1179L134.202 46.8901L131.378 61.5615L129.496 60.8338L130.459 56.4594L124.677 54.2245L120.68 57.4258L118.663 56.6461L132.204 46.1179ZM126.097 53.0072L130.822 54.8337L132.291 48.006L132.253 47.9912L126.097 53.0072ZM138.75 56.1985L142.879 57.7949C143.878 58.181 144.732 58.217 145.443 57.9028C146.158 57.5758 146.674 57.0026 146.99 56.1831C147.154 55.7605 147.226 55.3837 147.207 55.0525C147.205 54.7134 147.134 54.4211 146.994 54.1754C146.858 53.917 146.671 53.6973 146.432 53.5166C146.192 53.3358 145.919 53.186 145.612 53.0672L141.751 51.5748L138.75 56.1985ZM140.809 49.4443L146.206 51.5307C147.525 52.0405 148.409 52.7428 148.858 53.6375C149.319 54.5372 149.305 55.6208 148.815 56.8885C148.652 57.311 148.388 57.7462 148.023 58.194C147.664 58.629 147.195 58.985 146.617 59.262C146.052 59.5439 145.373 59.7009 144.58 59.733C143.806 59.7573 142.913 59.574 141.901 59.1829L137.829 57.6088L134.47 62.7568L132.646 62.0514L140.809 49.4443ZM118.324 69.3212L113.715 67.5392L106.433 78.7213L104.609 78.0159L111.89 66.8339L107.28 65.0519L108.201 63.6416L119.264 67.9183L118.324 69.3212ZM123.19 69.4362L125.188 70.2084L122.364 84.8797L120.482 84.152L121.444 79.7776L115.663 77.5427L111.666 80.744L109.649 79.9644L123.19 69.4362ZM117.083 76.3254L121.808 78.152L123.277 71.3242L123.239 71.3094L117.083 76.3254ZM129.735 79.5168L133.865 81.1131C134.863 81.4992 135.718 81.5352 136.428 81.221C137.143 80.894 137.659 80.3208 137.976 79.5013C138.139 79.0788 138.211 78.7019 138.192 78.3707C138.191 78.0317 138.12 77.7393 137.979 77.4936C137.844 77.2352 137.656 77.0156 137.417 76.8348C137.178 76.654 136.905 76.5042 136.598 76.3854L132.737 74.893L129.735 79.5168ZM131.794 72.7625L137.191 74.8489C138.51 75.3587 139.394 76.061 139.843 76.9557C140.305 77.8554 140.291 78.939 139.801 80.2067C139.637 80.6292 139.373 81.0644 139.009 81.5122C138.649 81.9473 138.181 82.3032 137.603 82.5802C137.037 82.8621 136.358 83.0191 135.566 83.0513C134.791 83.0756 133.898 82.8922 132.887 82.5012L128.815 80.9271L125.456 86.075L123.631 85.3697L131.794 72.7625ZM109.31 92.6395L104.7 90.8575L97.419 102.04L95.5943 101.334L102.875 90.1521L98.2659 88.3701L99.1864 86.9598L110.249 91.2366L109.31 92.6395ZM114.176 92.7544L116.173 93.5266L113.349 108.198L111.467 107.47L112.43 103.096L106.648 100.861L102.651 104.062L100.635 103.283L114.176 92.7544ZM108.068 99.6437L112.793 101.47L114.263 94.6425L114.224 94.6276L108.068 99.6437ZM120.721 102.835L124.85 104.431C125.849 104.817 126.703 104.853 127.414 104.539C128.129 104.212 128.645 103.639 128.962 102.82C129.125 102.397 129.197 102.02 129.178 101.689C129.176 101.35 129.105 101.058 128.965 100.812C128.829 100.553 128.642 100.334 128.403 100.153C128.164 99.9722 127.89 99.8225 127.583 99.7037L123.723 98.2112L120.721 102.835ZM122.78 96.0807L128.177 98.1671C129.496 98.677 130.38 99.3793 130.829 100.274C131.29 101.174 131.276 102.257 130.786 103.525C130.623 103.947 130.359 104.383 129.994 104.83C129.635 105.265 129.166 105.621 128.588 105.898C128.023 106.18 127.344 106.337 126.552 106.37C125.777 106.394 124.884 106.21 123.872 105.819L119.8 104.245L116.441 109.393L114.617 108.688L122.78 96.0807Z" fill="white"/>
</svg>
